<svg width="25" height="23" viewBox="0 0 25 23" fill="none" xmlns="http://www.w3.org/2000/svg">
    <path d="M6.77113 22.839C4.05332 22.839 1.8266 20.8635 1.8266 18.4312V16.1016C1.8266 15.6334 2.21485 15.2452 2.68305 15.2452C3.15124 15.2452 3.5395 15.6334 3.5395 16.1016C3.5395 17.529 4.92119 18.6025 6.77113 18.6025C8.62106 18.6025 10.0028 17.529 10.0028 16.1016C10.0028 15.6334 10.3911 15.2452 10.8593 15.2452C11.3274 15.2452 11.7157 15.6334 11.7157 16.1016V18.4312C11.7157 20.8635 9.50035 22.839 6.77113 22.839ZM3.83634 19.5503C4.33879 20.4867 5.46932 21.1261 6.77113 21.1261C8.07293 21.1261 9.20346 20.4752 9.70591 19.5503C8.89514 20.0413 7.89022 20.3268 6.77113 20.3268C5.65203 20.3268 4.64712 20.0413 3.83634 19.5503Z" fill="#0D1C2E"/>
    <path d="M6.77113 17.1863C4.89835 17.1863 3.21974 16.3299 2.38613 14.971C2.02071 14.3772 1.8266 13.6806 1.8266 12.9726C1.8266 11.7735 2.35187 10.6545 3.3111 9.82084C5.16103 8.19932 8.34701 8.19937 10.2083 9.80954C11.1676 10.6546 11.7043 11.7735 11.7043 12.9726C11.7043 13.6806 11.5102 14.3772 11.1447 14.971C10.3225 16.3299 8.6439 17.1863 6.77113 17.1863ZM6.77113 10.2776C5.88042 10.2776 5.05825 10.5745 4.4416 11.1112C3.85922 11.6137 3.5395 12.276 3.5395 12.9726C3.5395 13.3723 3.64223 13.7378 3.84777 14.0804C4.37306 14.9482 5.49216 15.4848 6.77113 15.4848C8.05009 15.4848 9.16918 14.9482 9.68305 14.0918C9.8886 13.7606 9.99139 13.3837 9.99139 12.984C9.99139 12.2874 9.67167 11.6251 9.08929 11.1112C8.48406 10.5745 7.66183 10.2776 6.77113 10.2776Z" fill="#0D1C2E"/>
    <path d="M6.77113 20.3266C3.95055 20.3266 1.8266 18.5109 1.8266 16.1128V12.9725C1.8266 10.5402 4.0419 8.56463 6.77113 8.56463C8.06151 8.56463 9.29483 9.00998 10.2198 9.80934C11.179 10.6544 11.7157 11.7735 11.7157 12.9725V16.1128C11.7157 18.5109 9.5917 20.3266 6.77113 20.3266ZM6.77113 10.2775C4.98971 10.2775 3.5395 11.488 3.5395 12.9725V16.1128C3.5395 17.5402 4.92119 18.6137 6.77113 18.6137C8.62106 18.6137 10.0028 17.5402 10.0028 16.1128V12.9725C10.0028 12.2759 9.68311 11.6136 9.10072 11.0997C8.48407 10.5744 7.66184 10.2775 6.77113 10.2775Z" fill="#0D1C2E"/>
    <path d="M20.3261 13.7606C18.6018 13.7606 17.1401 12.4816 17.0031 10.8372C16.9118 9.88943 17.2543 8.96446 17.9395 8.29072C18.5105 7.6969 19.3212 7.36575 20.1777 7.36575H22.5643C23.6948 7.40001 24.5627 8.29072 24.5627 9.38698V11.7394C24.5627 12.8356 23.6948 13.7263 22.5986 13.7606H20.3261ZM22.5301 9.07866H20.1891C19.7894 9.07866 19.424 9.22711 19.1614 9.50117C18.8302 9.82091 18.6703 10.2548 18.716 10.6888C18.7731 11.4425 19.5039 12.0477 20.3261 12.0477H22.5643C22.7128 12.0477 22.8498 11.9107 22.8498 11.7394V9.38698C22.8498 9.21569 22.7128 9.09007 22.5301 9.07866Z" fill="#0D1C2E"/>
    <path d="M16.8549 21.1258H14.0001C13.5319 21.1258 13.1436 20.7375 13.1436 20.2693C13.1436 19.8011 13.5319 19.4129 14.0001 19.4129H16.8549C19.8011 19.4129 21.7081 17.5059 21.7081 14.5597V13.7603H20.3264C18.6021 13.7603 17.1404 12.4813 17.0034 10.837C16.912 9.88915 17.2547 8.96419 17.9399 8.29045C18.5108 7.69665 19.3215 7.36549 20.1779 7.36549H21.6967V6.56612C21.6967 3.894 20.1324 2.05546 17.5973 1.75856C17.3232 1.71288 17.0833 1.7129 16.8435 1.7129H6.56612C6.29206 1.7129 6.0294 1.73573 5.76676 1.76999C3.2545 2.08973 1.7129 3.91684 1.7129 6.56612V8.84999C1.7129 9.31819 1.32464 9.70644 0.856451 9.70644C0.388258 9.70644 0 9.31819 0 8.84999V6.56612C0 3.04897 2.16972 0.502463 5.53843 0.0799468C5.84675 0.0342694 6.2007 0 6.56612 0H16.8435C17.1176 0 17.4716 0.0114193 17.837 0.068516C21.2057 0.456774 23.4096 3.01471 23.4096 6.56612V8.22194C23.4096 8.69012 23.0214 9.07838 22.5532 9.07838H20.1779C19.7783 9.07838 19.413 9.22683 19.1503 9.5009C18.8192 9.82064 18.6592 10.2546 18.7049 10.6885C18.7619 11.4422 19.4929 12.0474 20.3151 12.0474H22.5646C23.0328 12.0474 23.421 12.4357 23.421 12.9039V14.5597C23.421 18.4879 20.7832 21.1258 16.8549 21.1258Z" fill="#0D1C2E"/>
</svg>
